<?xml version="1.0" encoding="UTF-8"?>
<svg xmlns="http://www.w3.org/2000/svg" xmlns:xlink="http://www.w3.org/1999/xlink" width="200px" height="200px" viewBox="0 0 200 200" version="1.1">
<g id="surface1">
<path style=" stroke:none;fill-rule:evenodd;fill:rgb(0%,0%,0%);fill-opacity:1;" d="M 150 0 L 50 0 C 22.398438 0 0 22.398438 0 50 L 0 150 C 0 177.601562 22.398438 200 50 200 L 150 200 C 177.601562 200 200 177.601562 200 150 L 200 50 C 200 22.398438 177.601562 0 150 0 M 150 16.667969 C 168.382812 16.667969 183.332031 31.617188 183.332031 50 L 183.332031 150 C 183.332031 168.382812 168.382812 183.332031 150 183.332031 L 50 183.332031 C 31.617188 183.332031 16.667969 168.382812 16.667969 150 L 16.667969 50 C 16.667969 31.617188 31.617188 16.667969 50 16.667969 Z M 150 16.667969 "/>
</g>
</svg>
