<?xml version="1.0" encoding="UTF-8"?>
<svg xmlns="http://www.w3.org/2000/svg" xmlns:xlink="http://www.w3.org/1999/xlink" width="200px" height="200px" viewBox="0 0 200 200" version="1.1">
<g id="surface1">
<path style=" stroke:none;fill-rule:nonzero;fill:rgb(0%,0%,0%);fill-opacity:1;" d="M 96.449219 30.933594 C 98.074219 28.242188 101.964844 28.242188 103.589844 30.933594 L 181.675781 160.476562 C 183.339844 163.25 181.351562 166.785156 178.101562 166.785156 L 22.535156 166.734375 C 19.324219 166.734375 17.292969 163.214844 18.964844 160.417969 Z M 100.023438 10.242188 C 93.691406 10.242188 87.351562 13.324219 83.640625 19.5 L 2.75 154.332031 C -4.875 167.023438 4.265625 183.265625 19.125 183.265625 L 180.925781 183.265625 C 195.785156 183.265625 204.917969 167.023438 197.300781 154.332031 L 116.410156 19.5 C 112.691406 13.324219 106.367188 10.242188 100.023438 10.242188 Z M 100.023438 10.242188 "/>
</g>
</svg>
